<?xml version="1.0" encoding="UTF-8" standalone="no"?><!DOCTYPE svg PUBLIC "-//W3C//DTD SVG 1.1//EN" "http://www.w3.org/Graphics/SVG/1.1/DTD/svg11.dtd"><svg width="38.000000pt" height="38.000000pt" viewBox="0 0 32 32" version="1.1" xmlns="http://www.w3.org/2000/svg" xmlns:xlink="http://www.w3.org/1999/xlink" xml:space="preserve" xmlns:serif="http://www.serif.com/" style="fill-rule:evenodd;clip-rule:evenodd;stroke-linecap:round;stroke-linejoin:round;stroke-miterlimit:1.5;"><rect id="skunkgirl_grace_thinking" x="0" y="0" width="32" height="32" style="fill:none;"/><clipPath id="_clip1"><rect x="0" y="0" width="32" height="32"/></clipPath><g clip-path="url(#_clip1)"><g id="outline"><path d="M16,3.33c1.935,-1.044 4.314,-0.907 6.121,0.377l0.342,0.114c0.201,0.067 0.399,0.142 0.594,0.225c0.573,-0.377 1.247,-0.582 1.943,-0.582c0.937,0 1.836,0.372 2.499,1.035c0.001,0.001 0.001,0.001 0.002,0.002c0.663,0.663 1.035,1.562 1.035,2.499c0,0.514 -0.112,1.017 -0.323,1.476l0.787,0.524c0,0 0,0 0,0c-0.4,0.4 -0.872,0.712 -1.384,0.923c0.618,1.05 1.043,2.209 1.246,3.423l1.138,2.654l-1,-0.5c-0.021,2.314 -0.715,4.573 -2,6.5c0,0 0,0 0,0l-0.625,-0.75l-2.375,4.75c0,0 -0.311,-0.932 -0.586,-1.757c-0.095,-0.287 -0.175,-0.578 -0.237,-0.874l-1.199,1.37c-1.257,1.437 -3.073,2.261 -4.982,2.261c-0.652,0 -1.34,0 -1.992,0c-1.909,0 -3.725,-0.824 -4.982,-2.261l-1.199,-1.37c-0.062,0.296 -0.142,0.587 -0.237,0.874c-0.275,0.825 -0.586,1.757 -0.586,1.757l-2.429,-4.857l-0.571,0.857c0,0 0,0 0,0c-1.285,-1.927 -1.979,-4.186 -2,-6.5l-1,0.5l1.138,-2.654c0.203,-1.214 0.628,-2.373 1.246,-3.423c-0.512,-0.211 -0.984,-0.523 -1.384,-0.923c0,0 0,0 0,0l0.787,-0.524c-0.211,-0.459 -0.323,-0.962 -0.323,-1.476c0,-0.937 0.372,-1.836 1.035,-2.499c0.001,-0.001 0.001,-0.001 0.002,-0.002c0.663,-0.663 1.562,-1.035 2.499,-1.035c0.696,0 1.37,0.205 1.943,0.582c0.195,-0.083 0.393,-0.158 0.594,-0.225l0.342,-0.114c1.807,-1.284 4.186,-1.421 6.121,-0.377Z" style="fill:none;stroke:#000;stroke-width:4px;"/></g><g id="emoji"><path d="M24.036,9.893l0.964,-2.893c0,0 0,0 0.001,0.001c2.517,1.888 3.999,4.851 3.999,7.998c0,0.133 0,0.265 0,0.396c0,2.35 -0.696,4.649 -2,6.605c0,0 0,0 0,0l-0.625,-0.75l-2.375,4.75c0,0 -0.311,-0.932 -0.586,-1.757c-0.274,-0.823 -0.414,-1.686 -0.414,-2.554c0,-0.807 0,-1.689 0,-1.689l0,-2.8l-1,-1.2l1,-3l0,-4c0,0 0,0 0.001,0.001c0.367,0.275 0.713,0.574 1.035,0.892Zm-16.333,0.269c0.394,-0.42 0.827,-0.81 1.296,-1.161c0.001,-0.001 0.001,-0.001 0.001,-0.001l0,12.689c0,0.868 -0.14,1.731 -0.414,2.554c-0.275,0.825 -0.586,1.757 -0.586,1.757l-2.429,-4.857l-0.571,0.857c0,0 0,0 0,0c-1.304,-1.956 -2,-4.255 -2,-6.605c0,-0.131 0,-0.263 0,-0.396c0,-3.147 1.482,-6.11 3.999,-7.998c0.001,-0.001 0.001,-0.001 0.001,-0.001l0.703,3.162Zm8.297,-6.662l0.001,0c0.657,-0.329 1.382,-0.5 2.116,-0.5c0.372,0 0.776,0 1.115,0c0.509,0 1.014,0.082 1.497,0.243c0.535,0.178 1.25,0.417 1.734,0.578c0.357,0.119 0.706,0.264 1.044,0.432c0.592,0.297 1.493,0.747 1.493,0.747c0,0 0,0 0,0c-0.64,0.64 -1.509,1 -2.414,1l-1.586,0l-6,0c0,0 -5.586,0 -5.586,0c-0.905,0 -1.774,-0.36 -2.414,-1c0,0 0,0 0,0c0,0 0.901,-0.45 1.493,-0.747c0.338,-0.168 0.687,-0.313 1.044,-0.432c0.484,-0.161 1.199,-0.4 1.734,-0.578c0.483,-0.161 0.988,-0.243 1.497,-0.243c0.339,0 0.743,0 1.115,0c0.734,0 1.459,0.171 2.116,0.5l0.001,0Z" style="fill:#c0b97e;"/><path d="M12.419,7c-1.967,0 -3.855,0.782 -5.246,2.173c-1.391,1.391 -2.173,3.279 -2.173,5.246c0,0.137 0,0.274 0,0.408c0,2.69 0.976,5.289 2.748,7.313c0.759,0.868 1.568,1.792 2.274,2.599c1.257,1.437 3.073,2.261 4.982,2.261c0.652,0 1.34,0 1.992,0c1.909,0 3.725,-0.824 4.982,-2.261c0.706,-0.807 1.515,-1.731 2.274,-2.599c1.772,-2.024 2.748,-4.623 2.748,-7.313c0,-0.134 0,-0.271 0,-0.408c0,-1.967 -0.782,-3.855 -2.173,-5.246c-1.391,-1.391 -3.279,-2.173 -5.246,-2.173c-2.309,0 -4.853,0 -7.162,0Z" style="fill:#333;"/><path d="M14,5c0,0 0,3.223 0,4.493c0,0.338 0.028,0.674 0.083,1.007c0.24,1.44 0.917,5.5 0.917,5.5l0,1l2,0l0,-1c0,0 0.677,-4.06 0.917,-5.5c0.055,-0.333 0.083,-0.669 0.083,-1.007c0,-1.27 0,-4.493 0,-4.493l-4,0Z" style="fill:#e793d9;"/><g><g><path d="M11.5,13.75c0,-0.69 -0.56,-1.25 -1.25,-1.25c-0.69,0 -1.25,0.56 -1.25,1.25c0,0.764 0,1.736 0,2.5c0,0.69 0.56,1.25 1.25,1.25c0.69,0 1.25,-0.56 1.25,-1.25c0,-0.764 0,-1.736 0,-2.5Z" style="fill:#fff;"/><path d="M23.5,14.416c0,-0.243 -0.097,-0.476 -0.268,-0.648c-0.172,-0.171 -0.405,-0.268 -0.648,-0.268c-1.037,0 -2.584,0 -2.584,0c0,0 0,1.576 0,2.75c0,0.332 0.132,0.649 0.366,0.884c0.235,0.234 0.552,0.366 0.884,0.366c0.69,0 1.25,-0.56 1.25,-1.25c0,-0.625 0,-1.25 0,-1.25c0,0 0.198,0 0.417,0c0.155,0 0.303,-0.061 0.412,-0.171c0.11,-0.109 0.171,-0.257 0.171,-0.412c0,0 0,-0.001 0,-0.001Z" style="fill:#fff;"/></g><path d="M11.5,21.5c0,0 4.757,0 6.934,0c0.683,0 1.337,0.271 1.819,0.753c0.374,0.374 0.747,0.747 0.747,0.747" style="fill:none;stroke:#757575;stroke-width:1.5px;"/><path d="M13.297,17.594c-0.177,-0.355 -0.108,-0.783 0.173,-1.064c0.089,-0.089 0.18,-0.18 0.26,-0.26c0.173,-0.173 0.407,-0.27 0.652,-0.27c0.764,0 2.472,0 3.236,0c0.245,0 0.479,0.097 0.652,0.27c0.08,0.08 0.171,0.171 0.26,0.26c0.281,0.281 0.35,0.709 0.173,1.064c-0.143,0.285 -0.312,0.623 -0.448,0.896c-0.156,0.313 -0.476,0.51 -0.825,0.51c-0.76,0 -2.1,0 -2.86,0c-0.349,0 -0.669,-0.197 -0.825,-0.51c-0.136,-0.273 -0.305,-0.611 -0.448,-0.896Z" style="fill:#5b5b5b;"/></g><g><g><path d="M22,7l-1,-1c0,0 0.692,-0.692 1.501,-1.501c0.663,-0.663 1.562,-1.035 2.499,-1.035c0.687,0 1.353,0.2 1.921,0.568c-1.228,0.019 -4.921,2.968 -4.921,2.968Z" style="fill:#4d4d4d;"/><path d="M26.921,4.032c0.207,0.134 0.401,0.29 0.578,0.467c0.001,0.001 0.001,0.001 0.002,0.002c0.663,0.663 1.035,1.562 1.035,2.499c0,0.937 -0.372,1.836 -1.035,2.499c-0.809,0.809 -1.501,1.501 -1.501,1.501l-4,-4l1.533,-1.533c0.937,-0.937 2.16,-1.416 3.388,-1.435Z" style="fill:#333;"/></g><g><path d="M10,7c0,0 -3.693,-2.949 -4.921,-2.968c0.568,-0.368 1.234,-0.568 1.921,-0.568c0.937,0 1.836,0.372 2.499,1.035c0.809,0.809 1.501,1.501 1.501,1.501l-1,1Z" style="fill:#4d4d4d;"/><path d="M5.079,4.032c1.228,0.019 2.451,0.498 3.388,1.435c0.856,0.856 1.533,1.533 1.533,1.533l-4,4c0,0 -0.692,-0.692 -1.501,-1.501c-0.663,-0.663 -1.035,-1.562 -1.035,-2.499c0,-0.937 0.372,-1.836 1.035,-2.499c0.001,-0.001 0.001,-0.001 0.002,-0.002c0.177,-0.177 0.371,-0.333 0.578,-0.467Z" style="fill:#333;"/></g></g><g><path d="M2.176,15.588l1.758,-4.101c0.219,-0.511 0.498,-0.991 0.828,-1.429c-0.659,-0.201 -1.266,-0.562 -1.762,-1.058c0,0 0,0 0,0c0,0 1.241,-0.827 2.126,-1.418c0.582,-0.388 1.14,-0.81 1.671,-1.265c0.665,-0.57 1.662,-1.425 2.663,-2.283c1.846,-1.582 4.452,-1.831 6.54,-0.704c2.088,-1.127 4.694,-0.878 6.54,0.704c1.001,0.858 1.998,1.713 2.663,2.283c0.531,0.455 1.089,0.877 1.671,1.265c0.885,0.591 2.126,1.418 2.126,1.418c0,0 0,0 0,0c-0.496,0.496 -1.103,0.857 -1.762,1.058c0.33,0.438 0.609,0.918 0.828,1.429c0.862,2.012 1.934,4.513 1.934,4.513c0,0 -5.737,-2.869 -7.495,-3.747c-0.214,-0.108 -0.424,-0.223 -0.63,-0.347c0.082,0.354 0.125,0.721 0.125,1.094c0,0 0,0 0,0c0,0 0,0 -0.001,0c-2.511,-0.628 -4.569,-2.424 -5.53,-4.827l-0.453,-1.132l-0.008,-0.014l-0.008,-0.016l-0.008,0.016l-0.008,0.014l-0.453,1.132c-0.961,2.403 -3.019,4.199 -5.53,4.827c-0.001,0 -0.001,0 -0.001,0c0,0 0,0 0,0c0,-0.373 0.043,-0.74 0.125,-1.094c-0.025,0.015 -0.051,0.03 -0.076,0.045c-2.652,0.106 -5.264,1.799 -7.873,3.637Z" style="fill:#e6dfa7;"/><path d="M2.176,15.588l3.391,-4.068c0.288,-0.346 0.61,-0.662 0.962,-0.943c1.066,-0.853 3.441,-2.753 4.219,-3.375c0.167,-0.134 0.349,-0.25 0.541,-0.346c0.918,-0.46 3.711,-1.856 3.711,-1.856c0,0 -0.329,0.986 -0.609,1.827c-0.257,0.771 -0.69,1.472 -1.265,2.047l-3.077,3.077c-0.181,0.107 -0.366,0.208 -0.554,0.302c-1.758,0.878 -7.495,3.747 -7.495,3.747l0.176,-0.412Z" style="fill:#d270b8;"/></g><path d="M8,23c0,0 -0.432,0.216 -0.894,0.447c-0.678,0.339 -1.106,1.032 -1.106,1.789c0,1.114 0,2.73 0,3.764c0,0.265 0.105,0.52 0.293,0.707c0.187,0.188 0.442,0.293 0.707,0.293c0.871,0 2.129,0 3,0c0.265,0 0.52,-0.105 0.707,-0.293c0.188,-0.187 0.293,-0.442 0.293,-0.707c0,-0.696 0,-1.5 0,-1.5c0,0 0.928,0 1.752,0c0.689,0 1.248,-0.559 1.248,-1.248c0,-0.001 0,-0.003 0,-0.004c0,-0.331 -0.131,-0.648 -0.366,-0.882c-0.234,-0.235 -0.551,-0.366 -0.882,-0.366c-1.758,0 -4.752,0 -4.752,0l0,-2Z" style="fill:none;stroke:#000;stroke-width:4px;stroke-linejoin:miter;stroke-miterlimit:2;"/><path d="M8,23c0,0 -0.432,0.216 -0.894,0.447c-0.678,0.339 -1.106,1.032 -1.106,1.789c0,1.114 0,2.73 0,3.764c0,0.265 0.105,0.52 0.293,0.707c0.187,0.188 0.442,0.293 0.707,0.293c0.871,0 2.129,0 3,0c0.265,0 0.52,-0.105 0.707,-0.293c0.188,-0.187 0.293,-0.442 0.293,-0.707c0,-0.696 0,-1.5 0,-1.5c0,0 0.928,0 1.752,0c0.689,0 1.248,-0.559 1.248,-1.248c0,-0.001 0,-0.003 0,-0.004c0,-0.331 -0.131,-0.648 -0.366,-0.882c-0.234,-0.235 -0.551,-0.366 -0.882,-0.366c-1.758,0 -4.752,0 -4.752,0l0,-2Z" style="fill:#5a5a5a;"/></g></g></svg>